<svg xmlns="http://www.w3.org/2000/svg" viewBox="0 0 400 460" width="400" height="460">
    <!-- Dark Container Card -->
    <rect width="400" height="460" rx="28" fill="#1c1d1f"/>
    <rect x="24" y="24" width="352" height="352" rx="20" fill="#ffffff"/>
    
    <!-- QR Finder Pattern Top-Left -->
    <rect x="54" y="54" width="80" height="80" fill="#000000"/>
    <rect x="70" y="70" width="48" height="48" fill="#ffffff"/>
    <rect x="80" y="80" width="28" height="28" fill="#000000"/>
    
    <!-- QR Finder Pattern Top-Right -->
    <rect x="266" y="54" width="80" height="80" fill="#000000"/>
    <rect x="282" y="70" width="48" height="48" fill="#ffffff"/>
    <rect x="292" y="80" width="28" height="28" fill="#000000"/>
    
    <!-- QR Finder Pattern Bottom-Left -->
    <rect x="54" y="266" width="80" height="80" fill="#000000"/>
    <rect x="70" y="282" width="48" height="48" fill="#ffffff"/>
    <rect x="80" y="292" width="28" height="28" fill="#000000"/>

    <!-- Data Modules (PhonePe Pattern Grid) -->
    <g fill="#000000">
        <rect x="150" y="54" width="20" height="20"/>
        <rect x="190" y="54" width="20" height="40"/>
        <rect x="220" y="54" width="30" height="20"/>
        
        <rect x="150" y="90" width="40" height="20"/>
        <rect x="200" y="100" width="20" height="30"/>
        <rect x="230" y="90" width="20" height="20"/>

        <rect x="54" y="150" width="40" height="20"/>
        <rect x="110" y="150" width="20" height="30"/>
        <rect x="140" y="140" width="30" height="20"/>
        
        <rect x="240" y="140" width="30" height="30"/>
        <rect x="280" y="150" width="20" height="20"/>
        <rect x="310" y="140" width="36" height="20"/>

        <rect x="54" y="190" width="20" height="30"/>
        <rect x="90" y="200" width="30" height="20"/>
        <rect x="130" y="180" width="30" height="30"/>

        <rect x="240" y="190" width="20" height="40"/>
        <rect x="270" y="190" width="40" height="20"/>
        <rect x="320" y="180" width="26" height="30"/>

        <rect x="150" y="250" width="30" height="20"/>
        <rect x="190" y="240" width="20" height="30"/>
        <rect x="220" y="250" width="30" height="20"/>

        <rect x="150" y="290" width="20" height="30"/>
        <rect x="180" y="280" width="30" height="20"/>
        <rect x="230" y="290" width="40" height="20"/>
        <rect x="280" y="270" width="30" height="30"/>
        <rect x="320" y="290" width="26" height="20"/>

        <rect x="150" y="330" width="40" height="20"/>
        <rect x="210" y="320" width="30" height="30"/>
        <rect x="260" y="330" width="40" height="20"/>
        <rect x="310" y="320" width="36" height="30"/>
    </g>

    <!-- PhonePe Central Logo Circle -->
    <circle cx="200" cy="200" r="42" fill="#000000" stroke="#ffffff" stroke-width="5"/>
    <text x="200" y="214" font-size="36" font-family="'Helvetica Neue', Arial, sans-serif" font-weight="bold" fill="#ffffff" text-anchor="middle">पे</text>

    <!-- Bottom Bank Bar (Punjab National Bank - 2089) -->
    <g transform="translate(40, 396)">
        <circle cx="16" cy="16" r="16" fill="#F4B400"/>
        <text x="16" y="22" font-size="16" font-family="sans-serif" font-weight="bold" fill="#7A0026" text-anchor="middle">प</text>
        <text x="46" y="22" font-size="20" font-family="'Inter', sans-serif" font-weight="600" fill="#ffffff">Punjab Nat... - 2089 ›</text>
    </g>
</svg>
